<?xml version="1.0" standalone="no"?><!DOCTYPE svg PUBLIC "-//W3C//DTD SVG 1.1//EN" "http://www.w3.org/Graphics/SVG/1.1/DTD/svg11.dtd"><svg height="1024" node-id="1" sillyvg="true" template-height="1024" template-width="1024" version="1.1" viewBox="0 0 1024 1024" width="1024" xmlns="http://www.w3.org/2000/svg" xmlns:xlink="http://www.w3.org/1999/xlink"><defs node-id="139"><linearGradient gradientUnits="objectBoundingBox" id="SVGID_1_" node-id="5" spreadMethod="pad" x1="94.3803" x2="947.1259" y1="554" y2="554"><stop offset="0" stop-color="#dae2ef"></stop><stop offset="1" stop-color="#f2f2f2"></stop></linearGradient><linearGradient gradientUnits="objectBoundingBox" id="SVGID_2_" node-id="10" spreadMethod="pad" x1="2509.4883" x2="2701.257" y1="-242.6665" y2="-242.6665"><stop offset="0" stop-color="#cfdee5"></stop><stop offset="1" stop-color="#c7d3dd"></stop></linearGradient><linearGradient gradientUnits="objectBoundingBox" id="SVGID_3_" node-id="14" spreadMethod="pad" x1="2442.7988" x2="2767.9465" y1="-242.6665" y2="-242.6665"><stop offset="0" stop-color="#cfdee5"></stop><stop offset="1" stop-color="#c7d3dd"></stop></linearGradient><linearGradient gradientUnits="objectBoundingBox" id="SVGID_4_" node-id="19" spreadMethod="pad" x1="2313.9885" x2="2370.3855" y1="-654.1895" y2="-654.1895"><stop offset="0" stop-color="#cfdee5"></stop><stop offset="1" stop-color="#c7d3dd"></stop></linearGradient><linearGradient gradientUnits="objectBoundingBox" id="SVGID_5_" node-id="23" spreadMethod="pad" x1="2293.2932" x2="2391.0806" y1="-654.1895" y2="-654.1895"><stop offset="0" stop-color="#cfdee5"></stop><stop offset="1" stop-color="#c7d3dd"></stop></linearGradient><linearGradient gradientUnits="objectBoundingBox" id="SVGID_6_" node-id="29" spreadMethod="pad" x1="-625.4868" x2="-618.6886" y1="1992.105" y2="1992.105"><stop offset="0" stop-color="#b7c5ce"></stop><stop offset="1" stop-color="#b6c4ce"></stop></linearGradient><linearGradient gradientUnits="objectBoundingBox" id="SVGID_7_" node-id="33" spreadMethod="pad" x1="160.8388" x2="184.0366" y1="546.5293" y2="546.5293"><stop offset="0" stop-color="#c7d3dd"></stop><stop offset="1" stop-color="#b6c4ce"></stop></linearGradient><linearGradient gradientUnits="objectBoundingBox" id="SVGID_8_" node-id="37" spreadMethod="pad" x1="189.1675" x2="352.1042" y1="602.3815" y2="602.3815"><stop offset="0" stop-color="#c7d3dd"></stop><stop offset="1" stop-color="#b6c4ce"></stop></linearGradient><linearGradient gradientUnits="objectBoundingBox" id="SVGID_9_" node-id="41" spreadMethod="pad" x1="140.727" x2="332.0639" y1="627.408" y2="627.408"><stop offset="0" stop-color="#c7d3dd"></stop><stop offset="1" stop-color="#b6c4ce"></stop></linearGradient><linearGradient gradientUnits="objectBoundingBox" id="SVGID_10_" node-id="45" spreadMethod="pad" x1="128.9756" x2="320.3125" y1="648.3267" y2="648.3267"><stop offset="0" stop-color="#c7d3dd"></stop><stop offset="1" stop-color="#b6c4ce"></stop></linearGradient><linearGradient gradientUnits="objectBoundingBox" id="SVGID_11_" node-id="49" spreadMethod="pad" x1="117.2243" x2="308.5612" y1="669.2453" y2="669.2453"><stop offset="0" stop-color="#c7d3dd"></stop><stop offset="1" stop-color="#b6c4ce"></stop></linearGradient><linearGradient gradientUnits="objectBoundingBox" id="SVGID_12_" node-id="53" spreadMethod="pad" x1="-622.7286" x2="-500.9465" y1="1947.3173" y2="1947.3173"><stop offset="0" stop-color="#b7c5ce"></stop><stop offset="1" stop-color="#b6c4ce"></stop></linearGradient><linearGradient gradientUnits="objectBoundingBox" id="SVGID_13_" node-id="57" spreadMethod="pad" x1="-499.4291" x2="-377.6471" y1="1947.3173" y2="1947.3173"><stop offset="0" stop-color="#b7c5ce"></stop><stop offset="1" stop-color="#b6c4ce"></stop></linearGradient><linearGradient gradientUnits="objectBoundingBox" id="SVGID_14_" node-id="61" spreadMethod="pad" x1="-522.715" x2="-481.9262" y1="1902.9961" y2="1902.9961"><stop offset="0" stop-color="#c7d3dd"></stop><stop offset="1" stop-color="#b6c4ce"></stop></linearGradient><linearGradient gradientUnits="objectBoundingBox" id="SVGID_15_" node-id="66" spreadMethod="pad" x1="837.6536" x2="850.6902" y1="633.6254" y2="633.6254"><stop offset="0" stop-color="#b7c5ce"></stop><stop offset="1" stop-color="#b6c4ce"></stop></linearGradient><linearGradient gradientUnits="objectBoundingBox" id="SVGID_16_" node-id="72" spreadMethod="pad" x1="371.4005" x2="384.4371" y1="633.6217" y2="633.6217"><stop offset="0" stop-color="#b7c5ce"></stop><stop offset="1" stop-color="#b6c4ce"></stop></linearGradient><linearGradient gradientUnits="objectBoundingBox" id="SVGID_17_" node-id="81" spreadMethod="pad" x1="377.9507" x2="608.9667" y1="547.7336" y2="547.7336"><stop offset="0" stop-color="#b7c5ce"></stop><stop offset="1" stop-color="#b6c4ce"></stop></linearGradient><linearGradient gradientUnits="objectBoundingBox" id="SVGID_18_" node-id="85" spreadMethod="pad" x1="614.3984" x2="845.4145" y1="547.7336" y2="547.7336"><stop offset="0" stop-color="#b7c5ce"></stop><stop offset="1" stop-color="#b6c4ce"></stop></linearGradient><linearGradient gradientUnits="objectBoundingBox" id="SVGID_19_" node-id="89" spreadMethod="pad" x1="568.4829" x2="646.7024" y1="462.7403" y2="462.7403"><stop offset="0" stop-color="#c7d3dd"></stop><stop offset="1" stop-color="#b6c4ce"></stop></linearGradient><linearGradient gradientUnits="objectBoundingBox" id="SVGID_20_" node-id="93" spreadMethod="pad" x1="418.148" x2="479.5311" y1="359.1986" y2="359.1986"><stop offset="0" stop-color="#c7d3dd"></stop><stop offset="1" stop-color="#b6c4ce"></stop></linearGradient><linearGradient gradientUnits="objectBoundingBox" id="SVGID_21_" node-id="97" spreadMethod="pad" x1="962.6169" x2="1024" y1="520.2387" y2="520.2387"><stop offset="0" stop-color="#c7d3dd"></stop><stop offset="1" stop-color="#b6c4ce"></stop></linearGradient><linearGradient gradientUnits="objectBoundingBox" id="SVGID_22_" node-id="101" spreadMethod="pad" x1="0.9775" x2="47.0235" y1="520.2387" y2="520.2387"><stop offset="0" stop-color="#c7d3dd"></stop><stop offset="1" stop-color="#b6c4ce"></stop></linearGradient><linearGradient gradientUnits="objectBoundingBox" id="SVGID_23_" node-id="105" spreadMethod="pad" x1="977.1872" x2="1012.4971" y1="599.9919" y2="599.9919"><stop offset="0" stop-color="#c7d3dd"></stop><stop offset="1" stop-color="#b6c4ce"></stop></linearGradient><linearGradient gradientUnits="objectBoundingBox" id="SVGID_24_" node-id="109" spreadMethod="pad" x1="948.8135" x2="964.1851" y1="396.0078" y2="396.0078"><stop offset="0" stop-color="#c7d3dd"></stop><stop offset="1" stop-color="#b6c4ce"></stop></linearGradient><linearGradient gradientUnits="objectBoundingBox" id="SVGID_25_" node-id="113" spreadMethod="pad" x1="216.4645" x2="245.6396" y1="422.0809" y2="422.0809"><stop offset="0" stop-color="#c7d3dd"></stop><stop offset="1" stop-color="#b6c4ce"></stop></linearGradient><linearGradient gradientUnits="objectBoundingBox" id="SVGID_26_" node-id="117" spreadMethod="pad" x1="351.4314" x2="368.3368" y1="511.0364" y2="511.0364"><stop offset="0" stop-color="#c7d3dd"></stop><stop offset="1" stop-color="#b6c4ce"></stop></linearGradient><linearGradient gradientUnits="objectBoundingBox" id="SVGID_27_" node-id="121" spreadMethod="pad" x1="739.7147" x2="763.2708" y1="355.1087" y2="355.1087"><stop offset="0" stop-color="#c7d3dd"></stop><stop offset="1" stop-color="#b6c4ce"></stop></linearGradient><linearGradient gradientUnits="objectBoundingBox" id="SVGID_28_" node-id="125" spreadMethod="pad" x1="779.5912" x2="788.8326" y1="385.783" y2="385.783"><stop offset="0" stop-color="#c7d3dd"></stop><stop offset="1" stop-color="#b6c4ce"></stop></linearGradient><linearGradient gradientUnits="objectBoundingBox" id="SVGID_31_" node-id="134" spreadMethod="pad" x1="257.0016" x2="1014.7977" y1="247.286" y2="247.286"><stop offset="0" stop-color="#b7c5ce"></stop><stop offset="1" stop-color="#b6c4ce"></stop></linearGradient><clipPath id="SVGID_30_" node-id="132"><path d="M 947.20 554.00 L 947.00 568.20 L 946.30 582.30 L 945.10 596.20 L 943.50 610.10 L 941.40 623.90 L 938.90 637.60 L 936.00 651.20 L 932.60 664.70 L 928.80 678.00 L 924.50 691.20 L 919.80 704.30 L 914.70 717.20 L 909.20 729.90 L 903.30 742.40 L 897.00 754.80 L 890.20 766.90 L 883.10 778.80 L 875.60 790.60 L 867.60 802.00 L 859.40 813.20 L 850.70 824.20 L 841.60 834.90 L 832.20 845.30 L 822.30 855.50 L 812.10 865.40 L 801.70 874.80 L 791.00 883.90 L 780.00 892.60 L 768.80 900.80 L 757.40 908.80 L 745.60 916.30 L 733.70 923.40 L 721.60 930.20 L 709.20 936.50 L 696.70 942.40 L 684.00 947.90 L 671.10 953.00 L 658.00 957.70 L 644.80 962.00 L 631.50 965.80 L 618.00 969.20 L 604.40 972.10 L 590.70 974.60 L 576.90 976.70 L 563.00 978.30 L 549.10 979.50 L 535.00 980.20 L 520.80 980.40 L 506.60 980.20 L 492.50 979.50 L 478.60 978.30 L 464.70 976.70 L 450.90 974.60 L 437.20 972.10 L 423.60 969.20 L 410.10 965.80 L 396.80 962.00 L 383.60 957.70 L 370.50 953.00 L 357.60 947.90 L 344.90 942.40 L 332.40 936.50 L 320.00 930.20 L 307.90 923.40 L 296.00 916.30 L 284.20 908.80 L 272.80 900.80 L 261.60 892.60 L 250.60 883.90 L 239.90 874.80 L 229.50 865.40 L 219.30 855.50 L 209.40 845.30 L 200.00 834.90 L 190.90 824.20 L 182.20 813.20 L 174.00 802.00 L 166.00 790.60 L 158.50 778.80 L 151.40 766.90 L 144.60 754.80 L 138.30 742.40 L 132.40 729.90 L 126.90 717.20 L 121.80 704.30 L 117.10 691.20 L 112.80 678.00 L 109.00 664.70 L 105.60 651.20 L 102.70 637.60 L 100.20 623.90 L 98.10 610.10 L 96.50 596.20 L 95.30 582.30 L 94.60 568.20 L 94.40 554.00 L 94.60 539.80 L 95.30 525.70 L 96.50 511.80 L 98.10 497.90 L 100.20 484.10 L 102.70 470.40 L 105.60 456.80 L 109.00 443.30 L 112.80 430.00 L 117.10 416.80 L 121.80 403.70 L 126.90 390.80 L 132.40 378.10 L 138.30 365.60 L 144.60 353.20 L 151.40 341.10 L 158.50 329.20 L 166.00 317.40 L 174.00 306.00 L 182.20 294.80 L 190.90 283.80 L 200.00 273.10 L 209.40 262.70 L 219.30 252.50 L 229.50 242.60 L 239.90 233.20 L 250.60 224.10 L 261.60 215.40 L 272.80 207.20 L 284.20 199.20 L 296.00 191.70 L 307.90 184.60 L 320.00 177.80 L 332.40 171.50 L 344.90 165.60 L 357.60 160.10 L 370.50 155.00 L 383.60 150.30 L 396.80 146.00 L 410.10 142.20 L 423.60 138.80 L 437.20 135.90 L 450.90 133.40 L 464.70 131.30 L 478.60 129.70 L 492.50 128.50 L 506.60 127.80 L 520.80 127.60 L 535.00 127.80 L 549.10 128.50 L 563.00 129.70 L 576.90 131.30 L 590.70 133.40 L 604.40 135.90 L 618.00 138.80 L 631.50 142.20 L 644.80 146.00 L 658.00 150.30 L 671.10 155.00 L 684.00 160.10 L 696.70 165.60 L 709.20 171.50 L 721.60 177.80 L 733.70 184.60 L 745.60 191.70 L 757.40 199.20 L 768.80 207.20 L 780.00 215.40 L 791.00 224.10 L 801.70 233.20 L 812.10 242.60 L 822.30 252.50 L 832.20 262.70 L 841.60 273.10 L 850.70 283.80 L 859.40 294.80 L 867.60 306.00 L 875.60 317.40 L 883.10 329.20 L 890.20 341.10 L 897.00 353.20 L 903.30 365.60 L 909.20 378.10 L 914.70 390.80 L 919.80 403.70 L 924.50 416.80 L 928.80 430.00 L 932.60 443.30 L 936.00 456.80 L 938.90 470.40 L 941.40 484.10 L 943.50 497.90 L 945.10 511.80 L 946.30 525.70 L 947.00 539.80 L 947.20 554.00 Z" fill="#000000" fill-rule="nonzero" node-id="316" stroke="none" target-height="852.80005" target-width="852.8" target-x="94.4" target-y="127.6"></path></clipPath></defs><path d="M 947.20 554.00 L 947.00 568.20 L 946.30 582.30 L 945.10 596.20 L 943.50 610.10 L 941.40 623.90 L 938.90 637.60 L 936.00 651.20 L 932.60 664.70 L 928.80 678.00 L 924.50 691.20 L 919.80 704.30 L 914.70 717.20 L 909.20 729.90 L 903.30 742.40 L 897.00 754.80 L 890.20 766.90 L 883.10 778.80 L 875.60 790.60 L 867.60 802.00 L 859.40 813.20 L 850.70 824.20 L 841.60 834.90 L 832.20 845.30 L 822.30 855.50 L 812.10 865.40 L 801.70 874.80 L 791.00 883.90 L 780.00 892.60 L 768.80 900.80 L 757.40 908.80 L 745.60 916.30 L 733.70 923.40 L 721.60 930.20 L 709.20 936.50 L 696.70 942.40 L 684.00 947.90 L 671.10 953.00 L 658.00 957.70 L 644.80 962.00 L 631.50 965.80 L 618.00 969.20 L 604.40 972.10 L 590.70 974.60 L 576.90 976.70 L 563.00 978.30 L 549.10 979.50 L 535.00 980.20 L 520.80 980.40 L 506.60 980.20 L 492.50 979.50 L 478.60 978.30 L 464.70 976.70 L 450.90 974.60 L 437.20 972.10 L 423.60 969.20 L 410.10 965.80 L 396.80 962.00 L 383.60 957.70 L 370.50 953.00 L 357.60 947.90 L 344.90 942.40 L 332.40 936.50 L 320.00 930.20 L 307.90 923.40 L 296.00 916.30 L 284.20 908.80 L 272.80 900.80 L 261.60 892.60 L 250.60 883.90 L 239.90 874.80 L 229.50 865.40 L 219.30 855.50 L 209.40 845.30 L 200.00 834.90 L 190.90 824.20 L 182.20 813.20 L 174.00 802.00 L 166.00 790.60 L 158.50 778.80 L 151.40 766.90 L 144.60 754.80 L 138.30 742.40 L 132.40 729.90 L 126.90 717.20 L 121.80 704.30 L 117.10 691.20 L 112.80 678.00 L 109.00 664.70 L 105.60 651.20 L 102.70 637.60 L 100.20 623.90 L 98.10 610.10 L 96.50 596.20 L 95.30 582.30 L 94.60 568.20 L 94.40 554.00 L 94.60 539.80 L 95.30 525.70 L 96.50 511.80 L 98.10 497.90 L 100.20 484.10 L 102.70 470.40 L 105.60 456.80 L 109.00 443.30 L 112.80 430.00 L 117.10 416.80 L 121.80 403.70 L 126.90 390.80 L 132.40 378.10 L 138.30 365.60 L 144.60 353.20 L 151.40 341.10 L 158.50 329.20 L 166.00 317.40 L 174.00 306.00 L 182.20 294.80 L 190.90 283.80 L 200.00 273.10 L 209.40 262.70 L 219.30 252.50 L 229.50 242.60 L 239.90 233.20 L 250.60 224.10 L 261.60 215.40 L 272.80 207.20 L 284.20 199.20 L 296.00 191.70 L 307.90 184.60 L 320.00 177.80 L 332.40 171.50 L 344.90 165.60 L 357.60 160.10 L 370.50 155.00 L 383.60 150.30 L 396.80 146.00 L 410.10 142.20 L 423.60 138.80 L 437.20 135.90 L 450.90 133.40 L 464.70 131.30 L 478.60 129.70 L 492.50 128.50 L 506.60 127.80 L 520.80 127.60 L 535.00 127.80 L 549.10 128.50 L 563.00 129.70 L 576.90 131.30 L 590.70 133.40 L 604.40 135.90 L 618.00 138.80 L 631.50 142.20 L 644.80 146.00 L 658.00 150.30 L 671.10 155.00 L 684.00 160.10 L 696.70 165.60 L 709.20 171.50 L 721.60 177.80 L 733.70 184.60 L 745.60 191.70 L 757.40 199.20 L 768.80 207.20 L 780.00 215.40 L 791.00 224.10 L 801.70 233.20 L 812.10 242.60 L 822.30 252.50 L 832.20 262.70 L 841.60 273.10 L 850.70 283.80 L 859.40 294.80 L 867.60 306.00 L 875.60 317.40 L 883.10 329.20 L 890.20 341.10 L 897.00 353.20 L 903.30 365.60 L 909.20 378.10 L 914.70 390.80 L 919.80 403.70 L 924.50 416.80 L 928.80 430.00 L 932.60 443.30 L 936.00 456.80 L 938.90 470.40 L 941.40 484.10 L 943.50 497.90 L 945.10 511.80 L 946.30 525.70 L 947.00 539.80 L 947.20 554.00 Z" fill="url(#SVGID_1_)" fill-rule="nonzero" node-id="322" stroke="none" target-height="852.80005" target-width="852.8" target-x="94.4" target-y="127.6"></path><g node-id="413"><path d="M 682.90 419.90 L 726.60 439.10 L 728.30 439.70 L 731.80 440.00 L 734.40 439.50 L 736.80 438.40 L 777.40 413.30 L 779.40 412.30 L 781.40 411.80 L 783.40 411.60 L 785.40 411.90 L 789.00 413.30 L 791.90 415.90 L 793.00 417.60 L 793.70 419.40 L 794.10 421.50 L 794.10 423.70 L 789.40 471.20 L 789.40 473.00 L 790.10 476.40 L 791.40 478.70 L 793.20 480.70 L 829.60 511.50 L 831.20 513.10 L 832.30 514.90 L 833.10 516.70 L 833.50 520.60 L 832.50 524.40 L 830.30 527.60 L 826.90 529.90 L 824.80 530.60 L 778.20 540.80 L 775.70 541.70 L 773.50 543.10 L 771.20 545.80 L 770.40 547.40 L 752.40 591.60 L 751.40 593.60 L 750.10 595.20 L 746.80 597.50 L 743.00 598.40 L 739.10 598.00 L 735.50 596.20 L 734.00 594.80 L 732.70 593.00 L 708.60 551.80 L 707.60 550.30 L 704.90 548.10 L 702.50 546.90 L 699.90 546.40 L 652.30 542.90 L 650.10 542.50 L 646.40 540.70 L 645.00 539.30 L 642.90 536.00 L 642.10 532.20 L 642.20 530.20 L 643.60 526.40 L 644.90 524.60 L 676.60 489.00 L 678.10 486.80 L 679.10 484.40 L 679.40 481.80 L 679.10 479.10 L 667.70 432.80 L 667.50 428.40 L 668.90 424.60 L 670.00 423.00 L 673.00 420.40 L 676.70 419.10 L 678.70 418.90 L 680.70 419.20 L 682.90 419.90 Z" fill="url(#SVGID_2_)" fill-rule="nonzero" group-id="1" node-id="326" stroke="none" target-height="186.80002" target-width="191.40002" target-x="642.1" target-y="411.6"></path><path d="M 891.40 491.80 L 891.10 500.70 L 890.40 509.50 L 889.30 518.00 L 887.70 526.40 L 885.60 534.60 L 883.20 542.70 L 880.30 550.70 L 877.10 558.30 L 873.40 565.80 L 869.40 573.10 L 865.00 580.10 L 860.30 586.90 L 855.30 593.40 L 849.90 599.70 L 844.20 605.60 L 838.30 611.30 L 832.00 616.70 L 825.50 621.70 L 818.70 626.40 L 811.70 630.80 L 804.40 634.80 L 796.90 638.50 L 789.30 641.70 L 781.30 644.60 L 773.20 647.00 L 765.00 649.10 L 756.60 650.70 L 748.10 651.80 L 739.30 652.50 L 730.40 652.80 L 721.50 652.50 L 712.70 651.80 L 704.20 650.70 L 695.80 649.10 L 687.60 647.00 L 679.50 644.60 L 671.50 641.70 L 663.90 638.50 L 656.40 634.80 L 649.10 630.80 L 642.10 626.40 L 635.30 621.70 L 628.80 616.70 L 622.50 611.30 L 616.60 605.60 L 610.90 599.70 L 605.50 593.40 L 600.50 586.90 L 595.80 580.10 L 591.40 573.10 L 587.40 565.80 L 583.70 558.30 L 580.50 550.70 L 577.60 542.70 L 575.20 534.60 L 573.10 526.40 L 571.50 518.00 L 570.40 509.50 L 569.70 500.70 L 569.40 491.80 L 569.70 482.90 L 570.40 474.10 L 571.50 465.60 L 573.10 457.20 L 575.20 449.00 L 577.60 440.90 L 580.50 432.90 L 583.70 425.30 L 587.40 417.80 L 591.40 410.50 L 595.80 403.50 L 600.50 396.70 L 605.50 390.20 L 610.90 383.90 L 616.60 378.00 L 622.50 372.30 L 628.80 366.90 L 635.30 361.90 L 642.10 357.20 L 649.10 352.80 L 656.40 348.80 L 663.90 345.10 L 671.50 341.90 L 679.50 339.00 L 687.60 336.60 L 695.80 334.50 L 704.20 332.90 L 712.70 331.80 L 721.50 331.10 L 730.40 330.80 L 739.30 331.10 L 748.10 331.80 L 756.60 332.90 L 765.00 334.50 L 773.20 336.60 L 781.30 339.00 L 789.30 341.90 L 796.90 345.10 L 804.40 348.80 L 811.70 352.80 L 818.70 357.20 L 825.50 361.90 L 832.00 366.90 L 838.30 372.30 L 844.20 378.00 L 849.90 383.90 L 855.30 390.20 L 860.30 396.70 L 865.00 403.50 L 869.40 410.50 L 873.40 417.80 L 877.10 425.30 L 880.30 432.90 L 883.20 440.90 L 885.60 449.00 L 887.70 457.20 L 889.30 465.60 L 890.40 474.10 L 891.10 482.90 L 891.40 491.80 Z" fill="none" group-id="1" node-id="328" stroke="url(#SVGID_3_)" stroke-linecap="butt" stroke-width="3.0674" target-height="322" target-width="322" target-x="569.4" target-y="330.8"></path></g><g node-id="414"><path d="M 250.20 324.90 L 264.10 330.70 L 266.10 330.30 L 278.00 323.00 L 279.20 322.60 L 280.40 322.60 L 281.40 323.00 L 282.30 323.80 L 282.80 324.80 L 282.90 326.10 L 281.50 340.10 L 281.90 342.10 L 293.30 352.00 L 294.10 353.00 L 294.40 354.10 L 294.30 355.30 L 293.90 356.30 L 293.10 357.10 L 291.90 357.60 L 278.20 360.60 L 276.80 361.30 L 275.90 362.50 L 270.60 375.50 L 269.90 376.60 L 269.00 377.20 L 266.70 377.40 L 265.70 376.90 L 264.80 375.90 L 257.70 363.80 L 256.60 362.70 L 255.10 362.20 L 241.10 361.20 L 239.90 360.90 L 238.90 360.20 L 238.30 359.20 L 238.10 358.00 L 238.20 356.90 L 238.90 355.80 L 248.20 345.30 L 248.90 343.90 L 248.90 342.40 L 245.60 328.80 L 245.60 327.50 L 246.00 326.40 L 247.80 324.90 L 248.90 324.70 L 250.20 324.90 Z" fill="url(#SVGID_4_)" fill-opacity="0.5" fill-rule="nonzero" group-id="2" node-id="333" stroke="none" target-height="54.799988" target-width="56.299988" target-x="238.1" target-y="322.6"></path><path d="M 311.60 346.10 L 311.30 351.00 L 310.60 355.70 L 309.50 360.20 L 307.90 364.60 L 305.90 368.70 L 303.50 372.60 L 300.80 376.20 L 297.70 379.60 L 294.30 382.70 L 290.70 385.40 L 286.80 387.80 L 282.70 389.80 L 278.30 391.40 L 273.80 392.50 L 269.10 393.20 L 264.20 393.50 L 259.30 393.20 L 254.60 392.50 L 250.10 391.40 L 245.70 389.80 L 241.60 387.80 L 237.70 385.40 L 234.10 382.70 L 230.70 379.60 L 227.60 376.20 L 224.90 372.60 L 222.50 368.70 L 220.50 364.60 L 218.90 360.20 L 217.80 355.70 L 217.10 351.00 L 216.80 346.10 L 217.10 341.20 L 217.80 336.50 L 218.90 332.00 L 220.50 327.60 L 222.50 323.50 L 224.90 319.60 L 227.60 316.00 L 230.70 312.60 L 234.10 309.50 L 237.70 306.80 L 241.60 304.40 L 245.70 302.40 L 250.10 300.80 L 254.60 299.70 L 259.30 299.00 L 264.20 298.70 L 269.10 299.00 L 273.80 299.70 L 278.30 300.80 L 282.70 302.40 L 286.80 304.40 L 290.70 306.80 L 294.30 309.50 L 297.70 312.60 L 300.80 316.00 L 303.50 319.60 L 305.90 323.50 L 307.90 327.60 L 309.50 332.00 L 310.60 336.50 L 311.30 341.20 L 311.60 346.10 Z" fill="none" group-id="2" node-id="335" stroke="url(#SVGID_5_)" stroke-linecap="butt" stroke-opacity="0.5" stroke-width="3.0674" target-height="94.79999" target-width="94.8" target-x="216.8" target-y="298.7"></path></g><g node-id="415"><path d="M 385.80 614.10 L 160.60 487.60 L 156.30 486.10 L 151.90 486.20 L 147.80 487.70 L 146.10 489.00 L 143.20 492.50 L 63.70 634.00 L 62.20 638.30 L 62.30 642.70 L 63.80 646.80 L 66.70 650.10 L 293.80 778.00 L 298.10 779.50 L 302.50 779.40 L 306.60 777.90 L 308.30 776.60 L 311.20 773.10 L 390.70 631.60 L 392.20 627.30 L 392.10 622.90 L 390.60 618.80 L 389.30 617.00 L 385.80 614.10 Z M 155.50 516.50 L 153.80 515.20 L 152.60 513.60 L 151.80 511.80 L 151.50 509.80 L 151.70 507.80 L 152.50 505.80 L 153.80 504.10 L 155.40 502.90 L 157.20 502.10 L 159.20 501.80 L 161.20 502.00 L 163.20 502.80 L 164.90 504.10 L 166.10 505.70 L 166.90 507.50 L 167.20 509.50 L 167.00 511.50 L 166.20 513.50 L 164.90 515.20 L 163.30 516.50 L 161.50 517.30 L 159.50 517.50 L 157.50 517.30 L 155.50 516.50 Z M 366.10 634.80 L 364.40 633.50 L 363.20 631.90 L 362.40 630.10 L 362.10 628.10 L 362.30 626.10 L 363.10 624.10 L 364.40 622.40 L 366.00 621.20 L 367.80 620.40 L 369.80 620.10 L 371.80 620.30 L 373.80 621.10 L 375.50 622.40 L 376.70 624.00 L 377.50 625.80 L 377.80 627.80 L 377.60 629.80 L 376.80 631.80 L 375.50 633.50 L 373.90 634.80 L 372.10 635.60 L 370.10 635.80 L 368.10 635.60 L 366.10 634.80 Z" fill="#ffffff" fill-rule="nonzero" group-id="3" node-id="340" stroke="none" target-height="293.4" target-width="330" target-x="62.2" target-y="486.1"></path><path d="M 162.40 509.60 L 162.10 510.90 L 161.40 512.00 L 160.30 512.70 L 159.00 513.00 L 157.70 512.70 L 156.60 512.00 L 155.90 510.90 L 155.60 509.60 L 155.90 508.30 L 156.60 507.20 L 157.70 506.50 L 159.00 506.20 L 160.30 506.50 L 161.40 507.20 L 162.10 508.30 L 162.40 509.60 Z" fill="url(#SVGID_6_)" fill-rule="nonzero" group-id="3" node-id="342" stroke="none" target-height="6.799988" target-width="6.799988" target-x="155.6" target-y="506.2"></path><path d="M 184.00 546.50 L 183.30 550.60 L 182.40 552.40 L 179.90 555.40 L 176.50 557.40 L 172.40 558.10 L 168.30 557.40 L 164.90 555.40 L 162.40 552.40 L 161.00 548.60 L 161.00 544.40 L 161.50 542.40 L 163.50 539.00 L 166.50 536.50 L 168.30 535.60 L 172.40 534.90 L 176.50 535.60 L 179.90 537.60 L 182.40 540.60 L 183.30 542.40 L 184.00 546.50 Z" fill="url(#SVGID_7_)" fill-rule="nonzero" group-id="3" node-id="344" stroke="none" target-height="23.199951" target-width="23" target-x="161" target-y="534.9"></path><path d="M 340.40 653.70 L 190.50 569.50 L 189.70 568.80 L 189.30 567.90 L 189.50 565.90 L 197.30 552.00 L 198.00 551.20 L 198.90 550.80 L 200.90 551.00 L 350.80 635.20 L 351.60 635.90 L 352.10 636.80 L 351.80 638.80 L 344.00 652.70 L 343.30 653.50 L 342.40 654.00 L 340.40 653.70 Z" fill="url(#SVGID_8_)" fill-rule="nonzero" group-id="3" node-id="346" stroke="none" target-height="103.20001" target-width="162.8" target-x="189.3" target-y="550.8"></path><path d="M 323.10 685.30 L 141.90 583.50 L 140.80 582.10 L 141.00 580.40 L 146.60 570.40 L 148.00 569.30 L 149.70 569.50 L 330.90 671.30 L 332.00 672.70 L 331.80 674.40 L 326.20 684.40 L 324.80 685.50 L 323.10 685.30 Z" fill="url(#SVGID_9_)" fill-rule="nonzero" group-id="3" node-id="348" stroke="none" target-height="116.20001" target-width="191.2" target-x="140.8" target-y="569.3"></path><path d="M 311.30 706.20 L 130.10 604.40 L 129.00 603.00 L 129.20 601.30 L 134.80 591.30 L 135.40 590.60 L 137.00 590.10 L 319.10 692.20 L 320.20 693.60 L 320.00 695.30 L 314.40 705.30 L 313.00 706.40 L 311.30 706.20 Z" fill="url(#SVGID_10_)" fill-rule="nonzero" group-id="3" node-id="350" stroke="none" target-height="116.30005" target-width="191.20001" target-x="129" target-y="590.1"></path><path d="M 299.60 727.10 L 118.40 625.30 L 117.30 623.90 L 117.50 622.20 L 123.10 612.20 L 124.50 611.10 L 126.20 611.30 L 307.40 713.10 L 308.50 714.50 L 308.30 716.20 L 302.70 726.20 L 301.30 727.30 L 299.60 727.10 Z" fill="url(#SVGID_11_)" fill-rule="nonzero" group-id="3" node-id="352" stroke="none" target-height="116.20001" target-width="191.2" target-x="117.3" target-y="611.1"></path><path d="M 307.10 490.50 L 159.90 509.50" fill="none" group-id="3" node-id="354" stroke="url(#SVGID_12_)" stroke-linecap="butt" stroke-width="4.6011" target-height="19" target-width="147.20001" target-x="159.9" target-y="490.5"></path><path d="M 310.80 492.60 L 371.20 628.20" fill="none" group-id="3" node-id="356" stroke="url(#SVGID_13_)" stroke-linecap="butt" stroke-width="4.6011" target-height="135.6" target-width="60.400024" target-x="310.8" target-y="492.6"></path><path d="M 327.50 490.50 L 327.20 494.20 L 326.20 497.60 L 324.70 500.80 L 322.70 503.70 L 320.30 506.10 L 317.40 508.10 L 314.20 509.60 L 310.80 510.60 L 307.10 510.90 L 303.40 510.60 L 300.00 509.60 L 296.80 508.10 L 293.90 506.10 L 291.50 503.70 L 289.50 500.80 L 288.00 497.60 L 287.00 494.20 L 286.70 490.50 L 287.00 486.80 L 288.00 483.40 L 289.50 480.20 L 291.50 477.30 L 293.90 474.90 L 296.80 472.90 L 300.00 471.40 L 303.40 470.40 L 307.10 470.10 L 310.80 470.40 L 314.20 471.40 L 317.40 472.90 L 320.30 474.90 L 322.70 477.30 L 324.70 480.20 L 326.20 483.40 L 327.20 486.80 L 327.50 490.50 Z" fill="url(#SVGID_14_)" fill-rule="nonzero" group-id="3" node-id="358" stroke="none" target-height="40.799988" target-width="40.799988" target-x="286.7" target-y="470.1"></path></g><g node-id="416"><path d="M 850.70 633.60 L 850.50 635.40 L 849.80 636.90 L 848.80 638.20 L 847.50 639.20 L 846.00 639.90 L 844.20 640.10 L 842.40 639.90 L 840.90 639.20 L 839.60 638.20 L 838.60 636.90 L 837.90 635.40 L 837.70 633.60 L 837.90 631.80 L 838.60 630.30 L 839.60 629.00 L 840.90 628.00 L 842.40 627.30 L 844.20 627.10 L 846.00 627.30 L 847.50 628.00 L 848.80 629.00 L 849.80 630.30 L 850.50 631.80 L 850.70 633.60 Z" fill="url(#SVGID_15_)" fill-rule="nonzero" group-id="4" node-id="363" stroke="none" target-height="13" target-width="13" target-x="837.7" target-y="627.1"></path><g node-id="418"><path d="M 855.30 595.40 L 359.90 595.40 L 356.50 595.60 L 353.30 596.30 L 350.30 597.30 L 347.50 598.80 L 344.90 600.50 L 342.60 602.60 L 340.50 604.90 L 338.70 607.50 L 337.30 610.40 L 336.30 613.40 L 335.60 616.50 L 335.40 619.90 L 335.40 931.20 L 335.60 934.60 L 336.30 937.80 L 337.30 940.80 L 338.80 943.60 L 340.50 946.20 L 344.90 950.60 L 347.50 952.40 L 350.40 953.80 L 353.40 954.80 L 356.50 955.50 L 359.90 955.70 L 855.30 955.70 L 858.70 955.50 L 861.90 954.80 L 864.90 953.80 L 870.30 950.60 L 874.70 946.20 L 877.90 940.70 L 878.90 937.70 L 879.60 934.60 L 879.80 931.20 L 879.80 619.90 L 879.60 616.50 L 878.90 613.40 L 877.90 610.40 L 876.40 607.50 L 874.70 604.90 L 872.60 602.60 L 870.30 600.50 L 867.70 598.80 L 864.80 597.30 L 861.80 596.30 L 858.70 595.60 L 855.30 595.40 Z M 378.60 648.60 L 375.90 648.30 L 373.30 647.70 L 371.00 646.50 L 368.90 645.00 L 367.10 643.20 L 365.60 641.10 L 364.40 638.80 L 363.80 636.20 L 363.50 633.50 L 363.80 630.80 L 364.40 628.20 L 365.60 625.90 L 367.10 623.80 L 368.90 622.00 L 371.00 620.50 L 373.30 619.30 L 375.90 618.70 L 378.60 618.40 L 381.30 618.70 L 383.90 619.30 L 386.20 620.50 L 388.30 622.00 L 390.10 623.80 L 391.60 625.90 L 392.80 628.20 L 393.40 630.80 L 393.70 633.50 L 393.40 636.20 L 392.70 638.80 L 391.60 641.10 L 390.10 643.20 L 388.30 645.00 L 386.20 646.50 L 383.90 647.70 L 381.30 648.30 L 378.60 648.60 Z M 841.70 648.60 L 839.00 648.30 L 836.40 647.70 L 834.10 646.50 L 832.00 645.00 L 830.20 643.20 L 828.70 641.10 L 827.50 638.80 L 826.90 636.20 L 826.60 633.50 L 826.90 630.80 L 827.50 628.20 L 828.70 625.90 L 830.20 623.80 L 832.00 622.00 L 834.10 620.50 L 836.40 619.30 L 839.00 618.70 L 841.70 618.40 L 844.40 618.70 L 847.00 619.30 L 849.30 620.50 L 851.40 622.00 L 853.20 623.80 L 854.70 625.90 L 855.90 628.20 L 856.50 630.80 L 856.80 633.50 L 856.50 636.20 L 855.90 638.80 L 854.80 641.10 L 853.30 643.20 L 851.50 645.00 L 849.30 646.50 L 847.00 647.60 L 844.50 648.30 L 841.70 648.60 Z" fill="#ffffff" fill-rule="nonzero" group-id="4,6" node-id="367" stroke="none" target-height="360.3" target-width="544.4" target-x="335.4" target-y="595.4"></path><path d="M 384.40 633.60 L 384.20 635.40 L 383.50 636.90 L 382.50 638.20 L 381.20 639.20 L 379.70 639.90 L 377.90 640.10 L 376.10 639.90 L 374.60 639.20 L 373.30 638.20 L 372.30 636.90 L 371.60 635.40 L 371.40 633.60 L 371.60 631.80 L 372.30 630.30 L 373.30 629.00 L 374.60 628.00 L 376.10 627.30 L 377.90 627.10 L 379.70 627.30 L 381.20 628.00 L 382.50 629.00 L 383.50 630.30 L 384.20 631.80 L 384.40 633.60 Z" fill="url(#SVGID_16_)" fill-rule="nonzero" group-id="4,6" node-id="369" stroke="none" target-height="13" target-width="13" target-x="371.4" target-y="627.1"></path><path d="M 457.20 682.80 L 457.00 685.70 L 455.50 691.30 L 452.60 696.30 L 450.70 698.50 L 448.50 700.40 L 443.50 703.30 L 437.90 704.80 L 435.00 705.00 L 432.10 704.80 L 426.50 703.30 L 421.50 700.40 L 419.30 698.50 L 415.80 693.90 L 413.60 688.60 L 413.00 685.70 L 412.80 682.80 L 413.60 677.00 L 415.80 671.70 L 419.30 667.10 L 421.50 665.20 L 426.50 662.30 L 432.10 660.80 L 435.00 660.60 L 437.90 660.80 L 443.50 662.30 L 448.50 665.20 L 450.70 667.10 L 452.60 669.30 L 455.50 674.30 L 457.00 679.90 L 457.20 682.80 Z" fill="#21b9ff" fill-rule="nonzero" group-id="4,6" node-id="371" stroke="none" target-height="44.400024" target-width="44.400024" target-x="412.8" target-y="660.6"></path><path d="M 816.50 704.30 L 486.80 704.30 L 485.40 704.10 L 483.30 702.90 L 482.00 700.70 L 481.80 699.30 L 481.80 668.70 L 482.50 666.20 L 484.30 664.40 L 485.40 663.90 L 816.50 663.70 L 817.90 663.90 L 820.10 665.20 L 821.30 667.30 L 821.50 668.70 L 821.30 700.70 L 820.80 701.80 L 819.00 703.60 L 816.50 704.30 Z" fill="#21b9ff" fill-rule="nonzero" group-id="4,6" node-id="373" stroke="none" target-height="40.599976" target-width="339.7" target-x="481.8" target-y="663.7"></path><path d="M 817.20 773.30 L 418.70 773.30 L 417.50 773.10 L 415.60 772.10 L 414.60 770.20 L 414.40 769.00 L 414.60 745.80 L 415.00 744.80 L 416.50 743.30 L 418.70 742.70 L 817.30 742.70 L 819.50 743.30 L 821.00 744.80 L 821.40 745.80 L 821.60 769.00 L 821.20 770.70 L 820.30 772.10 L 818.40 773.10 L 817.20 773.30 Z" fill="#21b9ff" fill-rule="nonzero" group-id="4,6" node-id="375" stroke="none" target-height="30.599976" target-width="407.19998" target-x="414.4" target-y="742.7"></path><path d="M 817.20 819.30 L 418.70 819.30 L 417.50 819.10 L 415.60 818.10 L 414.60 816.20 L 414.40 815.00 L 414.60 791.80 L 415.00 790.80 L 416.50 789.30 L 418.70 788.70 L 817.30 788.70 L 819.50 789.30 L 821.00 790.80 L 821.40 791.80 L 821.60 815.00 L 821.20 816.70 L 820.30 818.10 L 818.40 819.10 L 817.20 819.30 Z" fill="#21b9ff" fill-rule="nonzero" group-id="4,6" node-id="377" stroke="none" target-height="30.599976" target-width="407.19998" target-x="414.4" target-y="788.7"></path><path d="M 817.20 865.30 L 418.70 865.30 L 417.50 865.10 L 415.60 864.10 L 414.60 862.20 L 414.40 861.00 L 414.60 837.80 L 415.00 836.80 L 416.50 835.30 L 418.70 834.70 L 817.30 834.70 L 819.50 835.30 L 821.00 836.80 L 821.40 837.80 L 821.60 861.00 L 821.20 862.70 L 820.30 864.10 L 818.40 865.10 L 817.20 865.30 Z" fill="#21b9ff" fill-rule="nonzero" group-id="4,6" node-id="379" stroke="none" target-height="30.599976" target-width="407.19998" target-x="414.4" target-y="834.7"></path><path d="M 607.60 462.70 L 379.30 632.70" fill="none" group-id="4,6" node-id="381" stroke="url(#SVGID_17_)" stroke-linecap="butt" stroke-width="4.6011" target-height="170" target-width="228.29999" target-x="379.3" target-y="462.7"></path><path d="M 615.80 462.70 L 844.00 632.70" fill="none" group-id="4,6" node-id="383" stroke="url(#SVGID_18_)" stroke-linecap="butt" stroke-width="4.6011" target-height="170" target-width="228.20001" target-x="615.8" target-y="462.7"></path><path d="M 646.70 462.70 L 645.90 470.60 L 643.60 477.90 L 640.00 484.60 L 635.20 490.30 L 629.50 495.10 L 622.80 498.70 L 615.50 501.00 L 607.60 501.80 L 603.50 501.60 L 596.00 500.00 L 588.90 497.10 L 582.70 492.90 L 577.40 487.60 L 573.20 481.40 L 570.30 474.30 L 568.70 466.80 L 568.50 462.70 L 568.70 458.60 L 570.30 451.10 L 573.20 444.00 L 577.40 437.80 L 582.70 432.50 L 585.70 430.30 L 592.40 426.70 L 599.70 424.40 L 607.60 423.60 L 615.50 424.40 L 622.80 426.70 L 629.50 430.30 L 635.20 435.10 L 640.00 440.80 L 643.60 447.50 L 645.90 454.80 L 646.70 462.70 Z" fill="url(#SVGID_19_)" fill-rule="nonzero" group-id="4,6" node-id="385" stroke="none" target-height="78.19998" target-width="78.20001" target-x="568.5" target-y="423.6"></path></g></g><path d="M 479.50 359.20 L 479.20 363.30 L 478.40 367.20 L 477.20 370.90 L 475.40 374.50 L 473.20 377.80 L 470.50 380.90 L 467.40 383.60 L 464.10 385.80 L 460.50 387.60 L 456.80 388.80 L 452.90 389.60 L 448.80 389.90 L 444.70 389.60 L 440.80 388.80 L 437.10 387.60 L 433.50 385.80 L 430.20 383.60 L 427.10 380.90 L 424.40 377.80 L 422.20 374.50 L 420.40 370.90 L 419.20 367.20 L 418.40 363.30 L 418.10 359.20 L 418.40 355.10 L 419.20 351.20 L 420.40 347.50 L 422.20 343.90 L 424.40 340.60 L 427.10 337.50 L 430.20 334.80 L 433.50 332.60 L 437.10 330.80 L 440.80 329.60 L 444.70 328.80 L 448.80 328.50 L 452.90 328.80 L 456.80 329.60 L 460.50 330.80 L 464.10 332.60 L 467.40 334.80 L 470.50 337.50 L 473.20 340.60 L 475.40 343.90 L 477.20 347.50 L 478.40 351.20 L 479.20 355.10 L 479.50 359.20 Z" fill="url(#SVGID_20_)" fill-rule="nonzero" node-id="389" stroke="none" target-height="61.399994" target-width="61.399994" target-x="418.1" target-y="328.5"></path><path d="M 1024.00 520.20 L 1023.70 524.30 L 1022.90 528.20 L 1021.70 531.90 L 1019.90 535.50 L 1017.70 538.80 L 1015.00 541.90 L 1011.90 544.60 L 1008.60 546.80 L 1005.00 548.60 L 1001.30 549.80 L 997.40 550.60 L 993.30 550.90 L 989.20 550.60 L 985.30 549.80 L 981.60 548.60 L 978.00 546.80 L 974.70 544.60 L 971.60 541.90 L 968.90 538.80 L 966.70 535.50 L 964.90 531.90 L 963.70 528.20 L 962.90 524.30 L 962.60 520.20 L 962.90 516.10 L 963.70 512.20 L 964.90 508.50 L 966.70 504.90 L 968.90 501.60 L 971.60 498.50 L 974.70 495.80 L 978.00 493.60 L 981.60 491.80 L 985.30 490.60 L 989.20 489.80 L 993.30 489.50 L 997.40 489.80 L 1001.30 490.60 L 1005.00 491.80 L 1008.60 493.60 L 1011.90 495.80 L 1015.00 498.50 L 1017.70 501.60 L 1019.90 504.90 L 1021.70 508.50 L 1022.90 512.20 L 1023.70 516.10 L 1024.00 520.20 Z" fill="url(#SVGID_21_)" fill-rule="nonzero" node-id="391" stroke="none" target-height="61.400024" target-width="61.400024" target-x="962.6" target-y="489.5"></path><path d="M 47.00 520.20 L 46.80 523.40 L 45.20 529.20 L 43.90 531.80 L 40.30 536.50 L 35.60 540.10 L 33.00 541.40 L 27.20 543.00 L 24.00 543.20 L 17.80 542.40 L 15.00 541.40 L 9.90 538.40 L 5.80 534.30 L 4.10 531.80 L 1.80 526.40 L 1.20 523.40 L 1.00 520.20 L 1.80 514.00 L 2.80 511.20 L 5.80 506.10 L 9.90 502.00 L 15.00 499.00 L 20.80 497.40 L 24.00 497.20 L 27.20 497.40 L 33.00 499.00 L 35.60 500.30 L 40.30 503.90 L 43.90 508.60 L 45.20 511.20 L 46.80 517.00 L 47.00 520.20 Z" fill="url(#SVGID_22_)" fill-rule="nonzero" node-id="393" stroke="none" target-height="46" target-width="46" target-x="1" target-y="497.2"></path><path d="M 1012.50 600.00 L 1012.30 602.30 L 1011.20 606.80 L 1008.90 610.70 L 1007.30 612.50 L 1005.50 614.10 L 1001.60 616.40 L 997.10 617.50 L 994.80 617.70 L 992.50 617.50 L 988.00 616.40 L 984.10 614.10 L 982.30 612.50 L 979.50 608.80 L 977.70 604.60 L 977.30 602.30 L 977.10 600.00 L 977.70 595.40 L 979.50 591.20 L 982.30 587.50 L 984.10 585.90 L 988.00 583.60 L 992.50 582.50 L 994.80 582.30 L 997.10 582.50 L 1001.60 583.60 L 1005.50 585.90 L 1007.30 587.50 L 1008.90 589.30 L 1011.20 593.20 L 1012.30 597.70 L 1012.50 600.00 Z" fill="url(#SVGID_23_)" fill-rule="nonzero" node-id="395" stroke="none" target-height="35.400024" target-width="35.400024" target-x="977.1" target-y="582.3"></path><path d="M 964.20 396.00 L 963.60 398.90 L 961.90 401.40 L 959.40 403.10 L 956.50 403.70 L 953.60 403.10 L 951.10 401.40 L 949.40 398.90 L 948.80 396.00 L 949.40 393.10 L 951.10 390.60 L 953.60 388.90 L 956.50 388.30 L 959.40 388.90 L 961.90 390.60 L 963.60 393.10 L 964.20 396.00 Z" fill="url(#SVGID_24_)" fill-rule="nonzero" node-id="397" stroke="none" target-height="15.400024" target-width="15.400024" target-x="948.8" target-y="388.3"></path><path d="M 245.70 422.10 L 245.40 425.00 L 244.60 427.70 L 243.30 430.20 L 241.40 432.40 L 239.20 434.30 L 236.70 435.60 L 234.00 436.40 L 231.10 436.70 L 228.20 436.40 L 225.50 435.60 L 223.00 434.30 L 220.80 432.40 L 218.90 430.20 L 217.60 427.70 L 216.80 425.00 L 216.50 422.10 L 216.80 419.20 L 217.60 416.50 L 218.90 414.00 L 220.80 411.80 L 223.00 409.90 L 225.50 408.60 L 228.20 407.80 L 231.10 407.50 L 234.00 407.80 L 236.70 408.60 L 239.20 409.90 L 241.40 411.80 L 243.30 414.00 L 244.60 416.50 L 245.40 419.20 L 245.70 422.10 Z" fill="url(#SVGID_25_)" fill-rule="nonzero" node-id="399" stroke="none" target-height="29.200012" target-width="29.199997" target-x="216.5" target-y="407.5"></path><path d="M 368.40 511.00 L 368.10 513.30 L 367.20 515.30 L 365.90 517.00 L 364.20 518.30 L 362.20 519.20 L 359.90 519.50 L 357.60 519.20 L 355.60 518.30 L 353.90 517.00 L 352.60 515.30 L 351.70 513.30 L 351.40 511.00 L 351.70 508.70 L 352.60 506.70 L 353.90 505.00 L 355.60 503.70 L 357.60 502.80 L 359.90 502.50 L 362.20 502.80 L 364.20 503.70 L 365.90 505.00 L 367.20 506.70 L 368.10 508.70 L 368.40 511.00 Z" fill="url(#SVGID_26_)" fill-rule="nonzero" node-id="401" stroke="none" target-height="17" target-width="17" target-x="351.4" target-y="502.5"></path><path d="M 763.30 355.10 L 762.60 359.20 L 760.50 362.70 L 757.50 365.30 L 755.60 366.20 L 751.50 366.90 L 747.40 366.20 L 743.90 364.10 L 741.30 361.10 L 739.90 357.30 L 739.90 352.90 L 740.40 351.00 L 742.50 347.50 L 745.50 344.90 L 747.40 344.00 L 751.50 343.30 L 755.60 344.00 L 759.10 346.10 L 761.70 349.10 L 762.60 351.00 L 763.30 355.10 Z" fill="url(#SVGID_27_)" fill-rule="nonzero" node-id="403" stroke="none" target-height="23.600006" target-width="23.399963" target-x="739.9" target-y="343.3"></path><path d="M 788.80 385.80 L 788.60 387.00 L 787.50 389.10 L 785.40 390.20 L 784.20 390.40 L 781.90 389.80 L 780.20 388.10 L 779.80 387.00 L 779.60 385.80 L 780.20 383.50 L 781.90 381.80 L 784.20 381.20 L 785.40 381.40 L 787.50 382.50 L 788.60 384.60 L 788.80 385.80 Z" fill="url(#SVGID_28_)" fill-rule="nonzero" node-id="405" stroke="none" target-height="9.199982" target-width="9.200012" target-x="779.6" target-y="381.2"></path><g node-id="417"><g clip-path="url(#SVGID_30_)" group-id="5" node-id="409"><path d="M 257.10 184.40 L 257.10 191.10 L 258.40 199.90 L 261.10 208.60 L 263.00 213.10 L 265.50 217.80 L 268.80 223.00 L 274.70 230.20 L 278.40 233.90 L 287.00 241.00 L 292.10 244.40 L 297.80 247.80 L 304.40 251.10 L 310.80 253.90 L 318.10 256.60 L 326.40 259.10 L 335.70 261.50 L 344.70 263.30 L 354.70 264.90 L 365.90 266.20 L 378.30 267.20 L 389.30 267.60 L 409.40 267.40 L 431.20 265.50 L 442.80 263.90 L 464.60 259.50 L 484.50 254.40 L 525.30 242.40 L 537.80 239.20 L 546.10 237.50 L 554.30 236.30 L 562.50 235.50 L 574.70 235.40 L 581.00 235.90 L 587.30 236.80 L 593.50 238.10 L 599.90 240.00 L 606.60 242.30 L 613.50 245.20 L 620.10 248.50 L 627.00 252.40 L 634.30 257.10 L 649.80 268.00 L 657.40 272.80 L 664.80 276.90 L 672.10 280.40 L 679.60 283.60 L 694.20 288.60 L 701.30 290.40 L 711.00 292.40 L 720.30 293.90 L 729.40 294.90 L 743.00 295.80 L 780.10 296.60 L 795.00 297.50 L 801.70 298.30 L 808.40 299.60 L 814.50 301.40 L 820.30 303.70 L 824.30 305.80 L 828.20 308.40 L 831.80 311.50 L 835.20 315.10 L 838.20 318.90 L 841.00 323.40 L 843.60 328.60 L 849.30 342.70 L 852.50 349.70 L 855.90 355.70 L 859.60 361.40 L 863.50 366.40 L 867.30 370.80 L 871.40 374.90 L 879.70 381.90 L 898.50 395.10 L 908.20 402.60 L 915.30 409.60 L 918.50 413.60 L 921.50 418.10 L 924.30 423.20 L 926.60 428.60 L 928.70 434.80 L 930.60 442.10 L 931.90 449.50 L 932.90 458.10 L 934.10 476.30 L 935.00 482.30 L 936.10 486.60 L 937.40 489.70 L 938.80 491.80 L 940.20 493.20 L 941.70 493.90 L 943.40 494.20 L 945.20 494.10 L 947.30 493.40 L 949.60 492.10 L 952.50 490.00 L 955.70 487.10 L 959.30 483.20 L 964.30 476.80 L 969.80 469.00 L 975.20 460.70 L 986.00 442.40 L 1000.40 415.10 L 1014.80 385.30 L 797.00 58.60 L 676.20 39.00 L 512.30 12.80 L 451.50 3.50 L 433.30 1.00 L 425.80 0.30 L 420.50 4.90 L 408.80 16.90 L 372.40 56.30 L 327.90 105.40 L 257.10 184.40 Z" fill="url(#SVGID_31_)" fill-rule="nonzero" group-id="5,7" node-id="411" stroke="none" target-height="493.90002" target-width="757.69995" target-x="257.1" target-y="0.3"></path></g></g></svg>